<mxfile host="app.diagrams.net" modified="2021-01-20T00:18:40.223Z" agent="5.0 (Windows NT 10.0; Win64; x64) AppleWebKit/537.36 (KHTML, like Gecko) Chrome/87.0.4280.141 Safari/537.36" etag="wITKQwf0fJUene78WQ9p" version="14.2.4" type="github">
  <diagram name="Page-1" id="0783ab3e-0a74-02c8-0abd-f7b4e66b4bec">
    <mxGraphModel dx="2062" dy="1122" grid="1" gridSize="10" guides="1" tooltips="1" connect="1" arrows="1" fold="1" page="1" pageScale="1" pageWidth="850" pageHeight="1100" background="#ffffff" math="0" shadow="0">
      <root>
        <mxCell id="0" />
        <mxCell id="1" parent="0" />
        <mxCell id="t7thbEfWKexa40_ScQ5X-1" value="Prov_TraceTimePC" style="rounded=1;whiteSpace=wrap;html=1;" vertex="1" parent="1">
          <mxGeometry x="365" y="40" width="120" height="40" as="geometry" />
        </mxCell>
        <mxCell id="t7thbEfWKexa40_ScQ5X-2" value="Prov_ra_cal_TimingHandler" style="rounded=1;whiteSpace=wrap;html=1;" vertex="1" parent="1">
          <mxGeometry x="343" y="120" width="165" height="40" as="geometry" />
        </mxCell>
        <mxCell id="t7thbEfWKexa40_ScQ5X-3" value="Prov_ra_check&lt;i&gt;RA&lt;/i&gt;TraceConfig" style="rounded=1;whiteSpace=wrap;html=1;" vertex="1" parent="1">
          <mxGeometry x="10" y="200" width="165" height="40" as="geometry" />
        </mxCell>
        <mxCell id="t7thbEfWKexa40_ScQ5X-4" value="&lt;b&gt;Prov_Collector_Task&lt;/b&gt;" style="rounded=1;whiteSpace=wrap;html=1;" vertex="1" parent="1">
          <mxGeometry x="180" y="200" width="165" height="40" as="geometry" />
        </mxCell>
        <mxCell id="t7thbEfWKexa40_ScQ5X-5" value="&lt;b&gt;Prov_Collector_Runnable&lt;/b&gt;" style="rounded=1;whiteSpace=wrap;html=1;" vertex="1" parent="1">
          <mxGeometry x="690" y="200" width="165" height="40" as="geometry" />
        </mxCell>
        <mxCell id="t7thbEfWKexa40_ScQ5X-6" value="Prov_Collector_CAT1ISR" style="rounded=1;whiteSpace=wrap;html=1;" vertex="1" parent="1">
          <mxGeometry x="350" y="200" width="165" height="40" as="geometry" />
        </mxCell>
        <mxCell id="t7thbEfWKexa40_ScQ5X-9" value="&lt;b&gt;Prov_Collector_Stopwatch&lt;/b&gt;" style="rounded=1;whiteSpace=wrap;html=1;" vertex="1" parent="1">
          <mxGeometry x="860" y="200" width="165" height="40" as="geometry" />
        </mxCell>
        <mxCell id="t7thbEfWKexa40_ScQ5X-11" value="check_isInSymbolgroup" style="rounded=1;whiteSpace=wrap;html=1;" vertex="1" parent="1">
          <mxGeometry x="520" y="200" width="165" height="40" as="geometry" />
        </mxCell>
        <mxCell id="t7thbEfWKexa40_ScQ5X-12" value="&lt;b&gt;Prov_Collector_EventChain&lt;/b&gt;" style="rounded=1;whiteSpace=wrap;html=1;" vertex="1" parent="1">
          <mxGeometry x="10" y="280" width="165" height="40" as="geometry" />
        </mxCell>
        <mxCell id="t7thbEfWKexa40_ScQ5X-13" value="Prov_ra_cal_RecursiveTimeMaxDiff" style="rounded=1;whiteSpace=wrap;html=1;" vertex="1" parent="1">
          <mxGeometry x="180" y="280" width="209" height="40" as="geometry" />
        </mxCell>
        <mxCell id="t7thbEfWKexa40_ScQ5X-15" value="&lt;b&gt;Prov_TimingProcessor_Task&lt;/b&gt;" style="rounded=1;whiteSpace=wrap;html=1;" vertex="1" parent="1">
          <mxGeometry x="394" y="280" width="165" height="40" as="geometry" />
        </mxCell>
        <mxCell id="t7thbEfWKexa40_ScQ5X-18" value="" style="endArrow=classic;html=1;exitX=0.5;exitY=1;exitDx=0;exitDy=0;entryX=0.5;entryY=0;entryDx=0;entryDy=0;" edge="1" parent="1" source="t7thbEfWKexa40_ScQ5X-4" target="t7thbEfWKexa40_ScQ5X-12">
          <mxGeometry width="50" height="50" relative="1" as="geometry">
            <mxPoint x="400" y="580" as="sourcePoint" />
            <mxPoint x="450" y="530" as="targetPoint" />
          </mxGeometry>
        </mxCell>
        <mxCell id="t7thbEfWKexa40_ScQ5X-21" value="" style="endArrow=classic;html=1;exitX=0.5;exitY=1;exitDx=0;exitDy=0;" edge="1" parent="1" source="t7thbEfWKexa40_ScQ5X-4">
          <mxGeometry width="50" height="50" relative="1" as="geometry">
            <mxPoint x="400" y="580" as="sourcePoint" />
            <mxPoint x="290" y="280" as="targetPoint" />
          </mxGeometry>
        </mxCell>
        <mxCell id="t7thbEfWKexa40_ScQ5X-22" value="" style="endArrow=classic;html=1;exitX=0.5;exitY=1;exitDx=0;exitDy=0;entryX=0.5;entryY=0;entryDx=0;entryDy=0;" edge="1" parent="1" source="t7thbEfWKexa40_ScQ5X-4" target="t7thbEfWKexa40_ScQ5X-15">
          <mxGeometry width="50" height="50" relative="1" as="geometry">
            <mxPoint x="400" y="580" as="sourcePoint" />
            <mxPoint x="450" y="530" as="targetPoint" />
          </mxGeometry>
        </mxCell>
        <mxCell id="t7thbEfWKexa40_ScQ5X-23" value="&lt;b&gt;Prov_TimingProcessor_EventChain&lt;/b&gt;" style="rounded=1;whiteSpace=wrap;html=1;" vertex="1" parent="1">
          <mxGeometry x="10" y="360" width="210" height="40" as="geometry" />
        </mxCell>
        <mxCell id="t7thbEfWKexa40_ScQ5X-26" value="" style="endArrow=classic;html=1;exitX=0.5;exitY=1;exitDx=0;exitDy=0;entryX=0.5;entryY=0;entryDx=0;entryDy=0;" edge="1" parent="1" source="t7thbEfWKexa40_ScQ5X-12" target="t7thbEfWKexa40_ScQ5X-23">
          <mxGeometry width="50" height="50" relative="1" as="geometry">
            <mxPoint x="400" y="580" as="sourcePoint" />
            <mxPoint x="450" y="530" as="targetPoint" />
          </mxGeometry>
        </mxCell>
        <mxCell id="t7thbEfWKexa40_ScQ5X-27" value="Prov_ra_cal_TimeMaxDiff" style="rounded=1;whiteSpace=wrap;html=1;" vertex="1" parent="1">
          <mxGeometry x="180" y="600" width="165" height="40" as="geometry" />
        </mxCell>
        <mxCell id="t7thbEfWKexa40_ScQ5X-28" value="ra_checkIsEdge" style="rounded=1;whiteSpace=wrap;html=1;" vertex="1" parent="1">
          <mxGeometry x="350" y="600" width="165" height="40" as="geometry" />
        </mxCell>
        <mxCell id="t7thbEfWKexa40_ScQ5X-29" value="&lt;b&gt;Prov_Check_Trigger&lt;/b&gt;" style="rounded=1;whiteSpace=wrap;html=1;" vertex="1" parent="1">
          <mxGeometry x="520" y="600" width="165" height="40" as="geometry" />
        </mxCell>
        <mxCell id="t7thbEfWKexa40_ScQ5X-30" value="&lt;b&gt;Prov_RunTrigger&lt;/b&gt;" style="rounded=1;whiteSpace=wrap;html=1;" vertex="1" parent="1">
          <mxGeometry x="690" y="600" width="165" height="40" as="geometry" />
        </mxCell>
        <mxCell id="t7thbEfWKexa40_ScQ5X-31" value="Prov_ra_ehSaveContainner" style="rounded=1;whiteSpace=wrap;html=1;" vertex="1" parent="1">
          <mxGeometry x="860" y="600" width="165" height="40" as="geometry" />
        </mxCell>
        <mxCell id="t7thbEfWKexa40_ScQ5X-32" value="" style="endArrow=classic;html=1;exitX=0.5;exitY=1;exitDx=0;exitDy=0;entryX=0.5;entryY=0;entryDx=0;entryDy=0;" edge="1" parent="1" source="t7thbEfWKexa40_ScQ5X-23" target="t7thbEfWKexa40_ScQ5X-27">
          <mxGeometry width="50" height="50" relative="1" as="geometry">
            <mxPoint x="400" y="580" as="sourcePoint" />
            <mxPoint x="450" y="530" as="targetPoint" />
          </mxGeometry>
        </mxCell>
        <mxCell id="t7thbEfWKexa40_ScQ5X-33" value="" style="endArrow=classic;html=1;exitX=0.5;exitY=1;exitDx=0;exitDy=0;entryX=0.5;entryY=0;entryDx=0;entryDy=0;" edge="1" parent="1" source="t7thbEfWKexa40_ScQ5X-23" target="t7thbEfWKexa40_ScQ5X-28">
          <mxGeometry width="50" height="50" relative="1" as="geometry">
            <mxPoint x="125" y="410" as="sourcePoint" />
            <mxPoint x="102.5" y="450" as="targetPoint" />
          </mxGeometry>
        </mxCell>
        <mxCell id="t7thbEfWKexa40_ScQ5X-34" value="" style="endArrow=classic;html=1;entryX=0.5;entryY=0;entryDx=0;entryDy=0;exitX=0.5;exitY=1;exitDx=0;exitDy=0;" edge="1" parent="1" source="t7thbEfWKexa40_ScQ5X-23" target="t7thbEfWKexa40_ScQ5X-29">
          <mxGeometry width="50" height="50" relative="1" as="geometry">
            <mxPoint x="113" y="400" as="sourcePoint" />
            <mxPoint x="112.5" y="460" as="targetPoint" />
          </mxGeometry>
        </mxCell>
        <mxCell id="t7thbEfWKexa40_ScQ5X-35" value="" style="endArrow=classic;html=1;exitX=0.5;exitY=1;exitDx=0;exitDy=0;entryX=0.5;entryY=0;entryDx=0;entryDy=0;" edge="1" parent="1" source="t7thbEfWKexa40_ScQ5X-23" target="t7thbEfWKexa40_ScQ5X-30">
          <mxGeometry width="50" height="50" relative="1" as="geometry">
            <mxPoint x="145" y="430" as="sourcePoint" />
            <mxPoint x="122.5" y="470" as="targetPoint" />
          </mxGeometry>
        </mxCell>
        <mxCell id="t7thbEfWKexa40_ScQ5X-36" value="" style="endArrow=classic;html=1;exitX=0.5;exitY=1;exitDx=0;exitDy=0;entryX=0.5;entryY=0;entryDx=0;entryDy=0;" edge="1" parent="1" source="t7thbEfWKexa40_ScQ5X-23" target="t7thbEfWKexa40_ScQ5X-31">
          <mxGeometry width="50" height="50" relative="1" as="geometry">
            <mxPoint x="155" y="440" as="sourcePoint" />
            <mxPoint x="132.5" y="480" as="targetPoint" />
          </mxGeometry>
        </mxCell>
        <mxCell id="t7thbEfWKexa40_ScQ5X-38" value="" style="endArrow=classic;html=1;entryX=0.5;entryY=0;entryDx=0;entryDy=0;" edge="1" parent="1" source="t7thbEfWKexa40_ScQ5X-1" target="t7thbEfWKexa40_ScQ5X-2">
          <mxGeometry width="50" height="50" relative="1" as="geometry">
            <mxPoint x="400" y="580" as="sourcePoint" />
            <mxPoint x="450" y="530" as="targetPoint" />
          </mxGeometry>
        </mxCell>
        <mxCell id="t7thbEfWKexa40_ScQ5X-39" value="" style="endArrow=classic;html=1;exitX=0.5;exitY=1;exitDx=0;exitDy=0;entryX=0.5;entryY=0;entryDx=0;entryDy=0;" edge="1" parent="1" source="t7thbEfWKexa40_ScQ5X-2" target="t7thbEfWKexa40_ScQ5X-3">
          <mxGeometry width="50" height="50" relative="1" as="geometry">
            <mxPoint x="400" y="580" as="sourcePoint" />
            <mxPoint x="450" y="530" as="targetPoint" />
          </mxGeometry>
        </mxCell>
        <mxCell id="t7thbEfWKexa40_ScQ5X-40" value="" style="endArrow=classic;html=1;entryX=0.5;entryY=0;entryDx=0;entryDy=0;" edge="1" parent="1" target="t7thbEfWKexa40_ScQ5X-9">
          <mxGeometry width="50" height="50" relative="1" as="geometry">
            <mxPoint x="420" y="160" as="sourcePoint" />
            <mxPoint x="450" y="530" as="targetPoint" />
          </mxGeometry>
        </mxCell>
        <mxCell id="t7thbEfWKexa40_ScQ5X-41" value="" style="endArrow=classic;html=1;entryX=0.5;entryY=0;entryDx=0;entryDy=0;" edge="1" parent="1" target="t7thbEfWKexa40_ScQ5X-4">
          <mxGeometry width="50" height="50" relative="1" as="geometry">
            <mxPoint x="430" y="160" as="sourcePoint" />
            <mxPoint x="450" y="530" as="targetPoint" />
          </mxGeometry>
        </mxCell>
        <mxCell id="t7thbEfWKexa40_ScQ5X-42" value="" style="endArrow=classic;html=1;entryX=0.5;entryY=0;entryDx=0;entryDy=0;" edge="1" parent="1" target="t7thbEfWKexa40_ScQ5X-5">
          <mxGeometry width="50" height="50" relative="1" as="geometry">
            <mxPoint x="430" y="160" as="sourcePoint" />
            <mxPoint x="450" y="530" as="targetPoint" />
          </mxGeometry>
        </mxCell>
        <mxCell id="t7thbEfWKexa40_ScQ5X-43" value="" style="endArrow=classic;html=1;entryX=0.5;entryY=0;entryDx=0;entryDy=0;exitX=0.5;exitY=1;exitDx=0;exitDy=0;" edge="1" parent="1" source="t7thbEfWKexa40_ScQ5X-2" target="t7thbEfWKexa40_ScQ5X-11">
          <mxGeometry width="50" height="50" relative="1" as="geometry">
            <mxPoint x="400" y="580" as="sourcePoint" />
            <mxPoint x="450" y="530" as="targetPoint" />
          </mxGeometry>
        </mxCell>
        <mxCell id="t7thbEfWKexa40_ScQ5X-44" value="" style="endArrow=classic;html=1;exitX=0.5;exitY=1;exitDx=0;exitDy=0;" edge="1" parent="1" source="t7thbEfWKexa40_ScQ5X-2" target="t7thbEfWKexa40_ScQ5X-6">
          <mxGeometry width="50" height="50" relative="1" as="geometry">
            <mxPoint x="400" y="580" as="sourcePoint" />
            <mxPoint x="450" y="530" as="targetPoint" />
          </mxGeometry>
        </mxCell>
        <mxCell id="t7thbEfWKexa40_ScQ5X-45" value="" style="endArrow=classic;html=1;exitX=0.5;exitY=1;exitDx=0;exitDy=0;entryX=0.5;entryY=0;entryDx=0;entryDy=0;" edge="1" parent="1" source="t7thbEfWKexa40_ScQ5X-15" target="t7thbEfWKexa40_ScQ5X-27">
          <mxGeometry width="50" height="50" relative="1" as="geometry">
            <mxPoint x="400" y="580" as="sourcePoint" />
            <mxPoint x="450" y="530" as="targetPoint" />
          </mxGeometry>
        </mxCell>
        <mxCell id="t7thbEfWKexa40_ScQ5X-46" value="" style="endArrow=classic;html=1;entryX=0.5;entryY=0;entryDx=0;entryDy=0;exitX=0.5;exitY=1;exitDx=0;exitDy=0;" edge="1" parent="1" source="t7thbEfWKexa40_ScQ5X-15" target="t7thbEfWKexa40_ScQ5X-30">
          <mxGeometry width="50" height="50" relative="1" as="geometry">
            <mxPoint x="400" y="580" as="sourcePoint" />
            <mxPoint x="450" y="530" as="targetPoint" />
          </mxGeometry>
        </mxCell>
        <mxCell id="t7thbEfWKexa40_ScQ5X-47" value="" style="endArrow=classic;html=1;entryX=0.5;entryY=0;entryDx=0;entryDy=0;exitX=0.5;exitY=1;exitDx=0;exitDy=0;" edge="1" parent="1" source="t7thbEfWKexa40_ScQ5X-15" target="t7thbEfWKexa40_ScQ5X-31">
          <mxGeometry width="50" height="50" relative="1" as="geometry">
            <mxPoint x="400" y="580" as="sourcePoint" />
            <mxPoint x="450" y="530" as="targetPoint" />
          </mxGeometry>
        </mxCell>
        <mxCell id="t7thbEfWKexa40_ScQ5X-48" value="" style="endArrow=classic;html=1;exitX=0.5;exitY=1;exitDx=0;exitDy=0;" edge="1" parent="1" source="t7thbEfWKexa40_ScQ5X-15" target="t7thbEfWKexa40_ScQ5X-28">
          <mxGeometry width="50" height="50" relative="1" as="geometry">
            <mxPoint x="480" y="320" as="sourcePoint" />
            <mxPoint x="260" y="440" as="targetPoint" />
          </mxGeometry>
        </mxCell>
        <mxCell id="t7thbEfWKexa40_ScQ5X-49" value="" style="endArrow=classic;html=1;exitX=0.5;exitY=1;exitDx=0;exitDy=0;entryX=0.5;entryY=0;entryDx=0;entryDy=0;" edge="1" parent="1" source="t7thbEfWKexa40_ScQ5X-15" target="t7thbEfWKexa40_ScQ5X-29">
          <mxGeometry width="50" height="50" relative="1" as="geometry">
            <mxPoint x="400" y="580" as="sourcePoint" />
            <mxPoint x="450" y="530" as="targetPoint" />
          </mxGeometry>
        </mxCell>
        <mxCell id="t7thbEfWKexa40_ScQ5X-50" value="Prov_ra_TriggerRS" style="rounded=1;whiteSpace=wrap;html=1;" vertex="1" parent="1">
          <mxGeometry x="180" y="680" width="165" height="40" as="geometry" />
        </mxCell>
        <mxCell id="t7thbEfWKexa40_ScQ5X-51" value="Prov_RealAnalysisTiming" style="rounded=1;whiteSpace=wrap;html=1;" vertex="1" parent="1">
          <mxGeometry x="350" y="680" width="165" height="40" as="geometry" />
        </mxCell>
        <mxCell id="t7thbEfWKexa40_ScQ5X-52" value="&lt;b&gt;Prov_Send_Pre_RA_Data&lt;/b&gt;" style="rounded=1;whiteSpace=wrap;html=1;" vertex="1" parent="1">
          <mxGeometry x="520" y="680" width="165" height="40" as="geometry" />
        </mxCell>
        <mxCell id="t7thbEfWKexa40_ScQ5X-53" value="Prov_ra_set_TriggerFlag" style="rounded=1;whiteSpace=wrap;html=1;" vertex="1" parent="1">
          <mxGeometry x="690" y="680" width="165" height="40" as="geometry" />
        </mxCell>
        <mxCell id="t7thbEfWKexa40_ScQ5X-54" value="" style="endArrow=classic;html=1;exitX=0.5;exitY=1;exitDx=0;exitDy=0;entryX=0.5;entryY=0;entryDx=0;entryDy=0;" edge="1" parent="1" source="t7thbEfWKexa40_ScQ5X-29" target="t7thbEfWKexa40_ScQ5X-50">
          <mxGeometry width="50" height="50" relative="1" as="geometry">
            <mxPoint x="570" y="740" as="sourcePoint" />
            <mxPoint x="620" y="690" as="targetPoint" />
          </mxGeometry>
        </mxCell>
        <mxCell id="t7thbEfWKexa40_ScQ5X-55" value="" style="endArrow=classic;html=1;exitX=0.5;exitY=1;exitDx=0;exitDy=0;entryX=0.5;entryY=0;entryDx=0;entryDy=0;" edge="1" parent="1" source="t7thbEfWKexa40_ScQ5X-29" target="t7thbEfWKexa40_ScQ5X-53">
          <mxGeometry width="50" height="50" relative="1" as="geometry">
            <mxPoint x="570" y="740" as="sourcePoint" />
            <mxPoint x="620" y="690" as="targetPoint" />
          </mxGeometry>
        </mxCell>
        <mxCell id="t7thbEfWKexa40_ScQ5X-56" value="" style="endArrow=classic;html=1;exitX=0.5;exitY=1;exitDx=0;exitDy=0;entryX=0.5;entryY=0;entryDx=0;entryDy=0;" edge="1" parent="1" source="t7thbEfWKexa40_ScQ5X-29" target="t7thbEfWKexa40_ScQ5X-52">
          <mxGeometry width="50" height="50" relative="1" as="geometry">
            <mxPoint x="590" y="660" as="sourcePoint" />
            <mxPoint x="620" y="690" as="targetPoint" />
          </mxGeometry>
        </mxCell>
        <mxCell id="t7thbEfWKexa40_ScQ5X-57" value="" style="endArrow=classic;html=1;exitX=0.5;exitY=1;exitDx=0;exitDy=0;entryX=0.5;entryY=0;entryDx=0;entryDy=0;" edge="1" parent="1" source="t7thbEfWKexa40_ScQ5X-29" target="t7thbEfWKexa40_ScQ5X-51">
          <mxGeometry width="50" height="50" relative="1" as="geometry">
            <mxPoint x="570" y="740" as="sourcePoint" />
            <mxPoint x="620" y="690" as="targetPoint" />
          </mxGeometry>
        </mxCell>
        <mxCell id="t7thbEfWKexa40_ScQ5X-58" value="&lt;b&gt;Prov_SetSnapTrigger&lt;/b&gt;" style="rounded=1;whiteSpace=wrap;html=1;" vertex="1" parent="1">
          <mxGeometry x="860" y="680" width="165" height="40" as="geometry" />
        </mxCell>
        <mxCell id="t7thbEfWKexa40_ScQ5X-59" value="" style="endArrow=classic;html=1;exitX=0.5;exitY=1;exitDx=0;exitDy=0;entryX=0.5;entryY=0;entryDx=0;entryDy=0;" edge="1" parent="1" source="t7thbEfWKexa40_ScQ5X-30" target="t7thbEfWKexa40_ScQ5X-58">
          <mxGeometry width="50" height="50" relative="1" as="geometry">
            <mxPoint x="570" y="940" as="sourcePoint" />
            <mxPoint x="620" y="890" as="targetPoint" />
          </mxGeometry>
        </mxCell>
        <mxCell id="t7thbEfWKexa40_ScQ5X-60" value="&lt;b&gt;Prov_Load_Tx_Buffer&lt;/b&gt;" style="rounded=1;whiteSpace=wrap;html=1;" vertex="1" parent="1">
          <mxGeometry x="860" y="760" width="165" height="40" as="geometry" />
        </mxCell>
        <mxCell id="t7thbEfWKexa40_ScQ5X-61" value="&lt;b&gt;Prov_SetMessage&lt;/b&gt;" style="rounded=1;whiteSpace=wrap;html=1;" vertex="1" parent="1">
          <mxGeometry x="860" y="840" width="165" height="40" as="geometry" />
        </mxCell>
        <mxCell id="t7thbEfWKexa40_ScQ5X-62" value="NEXT" style="rounded=1;whiteSpace=wrap;html=1;" vertex="1" parent="1">
          <mxGeometry x="860" y="920" width="165" height="40" as="geometry" />
        </mxCell>
        <mxCell id="t7thbEfWKexa40_ScQ5X-63" value="" style="endArrow=classic;html=1;exitX=0.5;exitY=1;exitDx=0;exitDy=0;entryX=0.5;entryY=0;entryDx=0;entryDy=0;" edge="1" parent="1" source="t7thbEfWKexa40_ScQ5X-61" target="t7thbEfWKexa40_ScQ5X-62">
          <mxGeometry width="50" height="50" relative="1" as="geometry">
            <mxPoint x="570" y="940" as="sourcePoint" />
            <mxPoint x="620" y="890" as="targetPoint" />
          </mxGeometry>
        </mxCell>
        <mxCell id="t7thbEfWKexa40_ScQ5X-64" value="" style="endArrow=classic;html=1;exitX=0.5;exitY=1;exitDx=0;exitDy=0;entryX=0.5;entryY=0;entryDx=0;entryDy=0;" edge="1" parent="1" source="t7thbEfWKexa40_ScQ5X-60" target="t7thbEfWKexa40_ScQ5X-61">
          <mxGeometry width="50" height="50" relative="1" as="geometry">
            <mxPoint x="570" y="940" as="sourcePoint" />
            <mxPoint x="620" y="890" as="targetPoint" />
          </mxGeometry>
        </mxCell>
        <mxCell id="t7thbEfWKexa40_ScQ5X-65" value="" style="endArrow=classic;html=1;exitX=0.5;exitY=1;exitDx=0;exitDy=0;" edge="1" parent="1" source="t7thbEfWKexa40_ScQ5X-58" target="t7thbEfWKexa40_ScQ5X-60">
          <mxGeometry width="50" height="50" relative="1" as="geometry">
            <mxPoint x="570" y="940" as="sourcePoint" />
            <mxPoint x="620" y="890" as="targetPoint" />
          </mxGeometry>
        </mxCell>
        <mxCell id="t7thbEfWKexa40_ScQ5X-67" value="" style="endArrow=classic;html=1;exitX=0.5;exitY=1;exitDx=0;exitDy=0;entryX=0;entryY=0.5;entryDx=0;entryDy=0;" edge="1" parent="1" source="t7thbEfWKexa40_ScQ5X-52" target="t7thbEfWKexa40_ScQ5X-60">
          <mxGeometry width="50" height="50" relative="1" as="geometry">
            <mxPoint x="570" y="940" as="sourcePoint" />
            <mxPoint x="620" y="890" as="targetPoint" />
          </mxGeometry>
        </mxCell>
        <mxCell id="t7thbEfWKexa40_ScQ5X-72" value="Prov_ra_getSymbolIdxByID" style="rounded=1;whiteSpace=wrap;html=1;" vertex="1" parent="1">
          <mxGeometry x="564" y="280" width="165" height="40" as="geometry" />
        </mxCell>
        <mxCell id="t7thbEfWKexa40_ScQ5X-73" value="" style="endArrow=classic;html=1;exitX=0.5;exitY=1;exitDx=0;exitDy=0;entryX=0.5;entryY=0;entryDx=0;entryDy=0;" edge="1" parent="1" source="t7thbEfWKexa40_ScQ5X-5" target="t7thbEfWKexa40_ScQ5X-72">
          <mxGeometry width="50" height="50" relative="1" as="geometry">
            <mxPoint x="400" y="580" as="sourcePoint" />
            <mxPoint x="450" y="530" as="targetPoint" />
          </mxGeometry>
        </mxCell>
        <mxCell id="t7thbEfWKexa40_ScQ5X-74" value="" style="endArrow=classic;html=1;exitX=0.5;exitY=1;exitDx=0;exitDy=0;entryX=0.5;entryY=0;entryDx=0;entryDy=0;" edge="1" parent="1" source="t7thbEfWKexa40_ScQ5X-5" target="t7thbEfWKexa40_ScQ5X-12">
          <mxGeometry width="50" height="50" relative="1" as="geometry">
            <mxPoint x="400" y="580" as="sourcePoint" />
            <mxPoint x="450" y="530" as="targetPoint" />
          </mxGeometry>
        </mxCell>
        <mxCell id="t7thbEfWKexa40_ScQ5X-75" value="&lt;b&gt;Prov_TimingProcessor_Runnable&lt;/b&gt;" style="rounded=1;whiteSpace=wrap;html=1;" vertex="1" parent="1">
          <mxGeometry x="734" y="280" width="206" height="40" as="geometry" />
        </mxCell>
        <mxCell id="t7thbEfWKexa40_ScQ5X-76" value="" style="endArrow=classic;html=1;exitX=0.5;exitY=1;exitDx=0;exitDy=0;entryX=0.5;entryY=0;entryDx=0;entryDy=0;" edge="1" parent="1" source="t7thbEfWKexa40_ScQ5X-5" target="t7thbEfWKexa40_ScQ5X-75">
          <mxGeometry width="50" height="50" relative="1" as="geometry">
            <mxPoint x="400" y="580" as="sourcePoint" />
            <mxPoint x="450" y="530" as="targetPoint" />
          </mxGeometry>
        </mxCell>
        <mxCell id="t7thbEfWKexa40_ScQ5X-77" value="" style="endArrow=classic;html=1;exitX=0.5;exitY=1;exitDx=0;exitDy=0;entryX=0.5;entryY=0;entryDx=0;entryDy=0;" edge="1" parent="1" source="t7thbEfWKexa40_ScQ5X-75" target="t7thbEfWKexa40_ScQ5X-28">
          <mxGeometry width="50" height="50" relative="1" as="geometry">
            <mxPoint x="400" y="580" as="sourcePoint" />
            <mxPoint x="450" y="530" as="targetPoint" />
          </mxGeometry>
        </mxCell>
        <mxCell id="t7thbEfWKexa40_ScQ5X-78" value="" style="endArrow=classic;html=1;entryX=0.5;entryY=0;entryDx=0;entryDy=0;exitX=0.5;exitY=1;exitDx=0;exitDy=0;" edge="1" parent="1" source="t7thbEfWKexa40_ScQ5X-75" target="t7thbEfWKexa40_ScQ5X-30">
          <mxGeometry width="50" height="50" relative="1" as="geometry">
            <mxPoint x="840" y="320" as="sourcePoint" />
            <mxPoint x="450" y="530" as="targetPoint" />
          </mxGeometry>
        </mxCell>
        <mxCell id="t7thbEfWKexa40_ScQ5X-79" value="" style="endArrow=classic;html=1;entryX=0.5;entryY=0;entryDx=0;entryDy=0;exitX=0.5;exitY=1;exitDx=0;exitDy=0;" edge="1" parent="1" source="t7thbEfWKexa40_ScQ5X-75" target="t7thbEfWKexa40_ScQ5X-31">
          <mxGeometry width="50" height="50" relative="1" as="geometry">
            <mxPoint x="870" y="330" as="sourcePoint" />
            <mxPoint x="450" y="530" as="targetPoint" />
          </mxGeometry>
        </mxCell>
        <mxCell id="t7thbEfWKexa40_ScQ5X-80" value="" style="endArrow=classic;html=1;exitX=0.5;exitY=1;exitDx=0;exitDy=0;" edge="1" parent="1" source="t7thbEfWKexa40_ScQ5X-9">
          <mxGeometry width="50" height="50" relative="1" as="geometry">
            <mxPoint x="400" y="580" as="sourcePoint" />
            <mxPoint x="1030" y="280" as="targetPoint" />
          </mxGeometry>
        </mxCell>
        <mxCell id="t7thbEfWKexa40_ScQ5X-81" value="&lt;b&gt;Prov_TimingProcessor_Stopwatch&lt;/b&gt;" style="rounded=1;whiteSpace=wrap;html=1;" vertex="1" parent="1">
          <mxGeometry x="945" y="280" width="206" height="40" as="geometry" />
        </mxCell>
        <mxCell id="t7thbEfWKexa40_ScQ5X-82" value="" style="endArrow=classic;html=1;exitX=0.5;exitY=1;exitDx=0;exitDy=0;entryX=0.5;entryY=0;entryDx=0;entryDy=0;" edge="1" parent="1" source="t7thbEfWKexa40_ScQ5X-81" target="t7thbEfWKexa40_ScQ5X-27">
          <mxGeometry width="50" height="50" relative="1" as="geometry">
            <mxPoint x="400" y="580" as="sourcePoint" />
            <mxPoint x="100" y="440" as="targetPoint" />
          </mxGeometry>
        </mxCell>
        <mxCell id="t7thbEfWKexa40_ScQ5X-83" value="" style="endArrow=classic;html=1;exitX=0.5;exitY=1;exitDx=0;exitDy=0;entryX=0.5;entryY=0;entryDx=0;entryDy=0;" edge="1" parent="1" source="t7thbEfWKexa40_ScQ5X-81" target="t7thbEfWKexa40_ScQ5X-28">
          <mxGeometry width="50" height="50" relative="1" as="geometry">
            <mxPoint x="1040" y="320" as="sourcePoint" />
            <mxPoint x="450" y="530" as="targetPoint" />
          </mxGeometry>
        </mxCell>
        <mxCell id="t7thbEfWKexa40_ScQ5X-84" value="" style="endArrow=classic;html=1;exitX=0.5;exitY=1;exitDx=0;exitDy=0;entryX=0.5;entryY=0;entryDx=0;entryDy=0;" edge="1" parent="1" source="t7thbEfWKexa40_ScQ5X-81" target="t7thbEfWKexa40_ScQ5X-29">
          <mxGeometry width="50" height="50" relative="1" as="geometry">
            <mxPoint x="400" y="580" as="sourcePoint" />
            <mxPoint x="450" y="530" as="targetPoint" />
          </mxGeometry>
        </mxCell>
        <mxCell id="t7thbEfWKexa40_ScQ5X-85" value="" style="endArrow=classic;html=1;exitX=0.5;exitY=1;exitDx=0;exitDy=0;entryX=0.5;entryY=0;entryDx=0;entryDy=0;" edge="1" parent="1" source="t7thbEfWKexa40_ScQ5X-81" target="t7thbEfWKexa40_ScQ5X-30">
          <mxGeometry width="50" height="50" relative="1" as="geometry">
            <mxPoint x="400" y="580" as="sourcePoint" />
            <mxPoint x="450" y="530" as="targetPoint" />
          </mxGeometry>
        </mxCell>
        <mxCell id="t7thbEfWKexa40_ScQ5X-86" value="" style="endArrow=classic;html=1;exitX=0.5;exitY=1;exitDx=0;exitDy=0;entryX=0.5;entryY=0;entryDx=0;entryDy=0;" edge="1" parent="1" source="t7thbEfWKexa40_ScQ5X-81" target="t7thbEfWKexa40_ScQ5X-31">
          <mxGeometry width="50" height="50" relative="1" as="geometry">
            <mxPoint x="400" y="580" as="sourcePoint" />
            <mxPoint x="450" y="530" as="targetPoint" />
          </mxGeometry>
        </mxCell>
      </root>
    </mxGraphModel>
  </diagram>
</mxfile>
